<?xml version="1.0" encoding="UTF-8" standalone="no"?>
<!-- Created with Inkscape (http://www.inkscape.org/) -->

<svg
   version="1.1"
   id="svg2"
   width="149.16701"
   height="172.243"
   viewBox="0 0 149.16701 172.243"
   sodipodi:docname="Kings-Crown-n-Shield.svg"
   inkscape:version="1.2.2 (b0a8486541, 2022-12-01)"
   xmlns:inkscape="http://www.inkscape.org/namespaces/inkscape"
   xmlns:sodipodi="http://sodipodi.sourceforge.net/DTD/sodipodi-0.dtd"
   xmlns="http://www.w3.org/2000/svg"
   xmlns:svg="http://www.w3.org/2000/svg">
  <defs
     id="defs6">
    <clipPath
       clipPathUnits="userSpaceOnUse"
       id="clipPath18">
      <path
         d="M 0,9.1553e-5 H 288 V 288.00009 H 0 Z"
         clip-rule="evenodd"
         id="path16" />
    </clipPath>
    <clipPath
       clipPathUnits="userSpaceOnUse"
       id="clipPath322">
      <g
         id="g326">
        <path
           d="M -2.2888e-5,288 H 288 V -3.0518e-5 H -3.0518e-5"
           clip-rule="evenodd"
           id="path324" />
      </g>
    </clipPath>
  </defs>
  <sodipodi:namedview
     id="namedview4"
     pagecolor="#ffffff"
     bordercolor="#000000"
     borderopacity="0.25"
     inkscape:showpageshadow="2"
     inkscape:pageopacity="0.0"
     inkscape:pagecheckerboard="0"
     inkscape:deskcolor="#d1d1d1"
     showgrid="false"
     inkscape:zoom="2.6744792"
     inkscape:cx="55.337877"
     inkscape:cy="133.48393"
     inkscape:window-width="2300"
     inkscape:window-height="1358"
     inkscape:window-x="571"
     inkscape:window-y="5"
     inkscape:window-maximized="0"
     inkscape:current-layer="g10">
    <inkscape:page
       x="0"
       y="0"
       id="page8"
       width="149.16701"
       height="172.243" />
  </sodipodi:namedview>
  <g
     id="g10"
     inkscape:groupmode="layer"
     inkscape:label="Page 1"
     transform="matrix(1.3333333,0,0,-1.3333333,-112.178,336.82812)">
    <polygon
       fill="#585858"
       points="0,43.061 74.583,0 149.167,43.061 149.167,129.183 74.583,172.243 0,129.183 "
       id="polygon1273"
       transform="matrix(0.75000002,0,0,-0.75000002,84.133503,252.6211)" />
    <g
       id="g1072"
       transform="matrix(0.82456624,0,0,0.82456624,35.122226,51.94839)"
       style="fill:#ffffff">
      <path
         style="fill:#ffffff;fill-opacity:1;fill-rule:evenodd;stroke:none"
         d="m 116.98901,205.17545 -0.0234,-3.13672 c 4.01171,-0.87109 4.89453,-12.90234 5.91406,-27.58985 l 0.0117,-0.73046 c -14.42969,0.88671 -26.16797,1.69921 -27.019533,5.21875 l -3.148437,-0.0195 v -18.03906 l 3.148437,-0.0234 c 0.851563,3.53125 12.656253,4.34375 27.144533,5.23047 l 1.0625,-65.17968 2.60156,-6.95703 c 0.36328,-0.22266 0.52735,-0.23829 0.88672,0 l 2.60156,6.95703 1.06641,65.17968 c 14.48437,-0.8868 26.28906,-1.6993 27.14062,-5.23055 l 3.14844,0.0234 v 18.03906 l -3.14844,0.0195 c -0.84765,-3.51954 -12.58984,-4.33204 -27.01562,-5.21875 l 0.0117,0.73046 c 1.01562,14.68755 1.90234,26.7188 5.91406,27.58989 l -0.0273,3.13672 z m 0,0"
         id="path152" />
      <path
         style="fill:#ffffff;fill-opacity:1;fill-rule:evenodd;stroke:none"
         d="m 130.23119,210.32779 c -1.42187,0.44922 -3.0664,0.98047 -3.64453,1.1875 -2,0.73047 -3.67187,1.10156 -5.89844,1.32031 -2.48437,0.23047 -4.03515,0.1211 -5.50781,-0.3789 -0.52734,-0.19141 -1.04297,-0.32813 -1.14453,-0.32031 -0.10547,0.0195 -0.41797,1.08203 -0.69922,2.35937 -0.61719,2.82031 -1.84765,6.83984 -3.01953,9.85156 -0.47656,1.23047 -0.85937,2.30078 -0.85156,2.37891 0.008,0.082 0.48437,-0.17969 1.05078,-0.55859 1.19922,-0.82032 1.03516,-0.69141 3.39062,-2.42188 l 1.8086,-1.32031 -0.20313,-1.19922 c -0.33203,-1.92969 0.25782,-3.39063 1.83203,-4.51953 0.58594,-0.42969 0.90625,-0.53125 1.96485,-0.64063 1.40234,-0.1289 2.21094,0.0898 3.22265,0.92188 1.76954,1.42969 2.07032,4.33984 0.62891,6.03906 -0.32812,0.39063 -0.58984,0.76172 -0.58203,0.82813 0.008,0.082 0.45703,0.64062 1.00781,1.25 0.54297,0.61328 1.25781,1.46093 1.58985,1.89062 0.66796,0.87109 2.47656,3.73047 2.69921,4.28125 0.15625,0.37891 0.47266,0.48047 0.44532,0.14844 -0.0117,-0.10938 0.30468,-1.0586 0.69922,-2.12891 0.64062,-1.69922 1.8164,-4.08984 2.8789,-5.82031 l 0.34766,-0.57031 -0.66797,-0.52735 c -1.05078,-0.83984 -1.49219,-1.66015 -1.625,-3.02343 -0.0898,-0.96875 -0.043,-1.31641 0.27734,-2.0586 0.66797,-1.57031 1.88282,-2.44922 3.59766,-2.62109 2.74609,-0.25 4.70703,1.58984 4.83984,4.55078 0.0156,0.37109 0.0312,0.73047 0.0469,1.10156 l 0.61328,0.26953 c 0.33594,0.14063 1.86719,0.83985 3.41016,1.55078 1.53906,0.70704 2.82422,1.25 2.85938,1.20704 0.0352,-0.0391 -0.38282,-0.79688 -0.9336,-1.67969 -1.65234,-2.66016 -2.94531,-4.96875 -4.09375,-7.32031 -1.39453,-2.86719 -1.42578,-2.91797 -2.61719,-3.8086 -0.76562,-0.57031 -1.28906,-0.80859 -2.1289,-0.98828 -1.52344,-0.3125 -2.53906,-0.17187 -5.59375,0.76953 z m 0,0"
         id="path154" />
    </g>
  </g>
</svg>
